<svg width="24" height="24" viewBox="0 0 24 24" fill="none" xmlns="http://www.w3.org/2000/svg">
<path d="M12 21L20 18V10.75M12 21V11M12 21L4 18V10.75M12 11L10 13L2 10L4 8M12 11L20 8M12 11L14 13L20 10.75M12 11L4 8M20 8L22 10L20 10.75M20 8L12 5L4 8" stroke="black" stroke-width="0.4" stroke-linejoin="round"/>
<path d="M9.29294 1.50002L10.1465 0.646449C10.3417 0.451184 10.6583 0.451184 10.8536 0.646449C11.0488 0.841714 11.0488 1.1583 10.8536 1.35357L10.6754 1.53169M9.29294 1.50002H8.99998C8.72385 1.50002 8.5 1.72388 8.5 2.00002C8.5 2.27617 8.72385 2.50003 8.99998 2.50003H9.29292M9.29294 1.50002H10.4999C10.5617 1.50002 10.6208 1.51121 10.6754 1.53169M9.29292 2.50003L10.1464 3.35355C10.3417 3.54882 10.6582 3.54882 10.8535 3.35355C11.0487 3.15829 11.0487 2.8417 10.8535 2.64643L10.6754 2.46837M9.29292 2.50003H10.4999C10.5617 2.50003 10.6208 2.48884 10.6754 2.46837M10.6754 2.46837C10.865 2.3973 10.9999 2.21442 10.9999 2.00002C10.9999 1.78564 10.865 1.60276 10.6754 1.53169" stroke="black" stroke-width="0.4" stroke-linejoin="round"/>
<path d="M12 9C12 6.79086 13.5386 5 15.5 5C16.3284 5 17 4.32843 17 3.5C17 2.67157 16.3284 2 15.5 2H12" stroke="black" stroke-width="0.4" stroke-linecap="round" stroke-linejoin="round" stroke-dasharray="0.3 2"/>
</svg>
